<?xml version="1.0" standalone="no"?>
<!DOCTYPE svg PUBLIC "-//W3C//DTD SVG 20010904//EN"
 "http://www.w3.org/TR/2001/REC-SVG-20010904/DTD/svg10.dtd">
<svg version="1.0" xmlns="http://www.w3.org/2000/svg"
 width="411.000000pt" height="448.000000pt" viewBox="0 0 411.000000 448.000000"
 preserveAspectRatio="xMidYMid meet">

<g transform="translate(0.000000,448.000000) scale(0.100000,-0.100000)"
fill="#000000" stroke="none">
<path d="M636 3459 c-12 -10 -17 -21 -13 -26 5 -4 15 1 23 11 8 11 21 21 30
22 26 4 28 13 3 11 -12 -1 -32 -9 -43 -18z"/>
<path d="M282 3318 c-59 -66 -71 -81 -67 -88 3 -4 -1 -10 -9 -13 -7 -3 -13
-18 -13 -33 -1 -22 1 -24 9 -10 5 9 6 22 2 29 -6 9 -5 9 8 -1 10 -8 15 -27 14
-55 -1 -34 -4 -41 -18 -39 -11 2 -18 -3 -18 -13 0 -9 -4 -13 -10 -10 -7 4 -10
-53 -11 -162 0 -92 -2 -222 -4 -288 -2 -66 -6 -371 -10 -677 -5 -539 0 -688
25 -688 4 0 26 29 49 63 l41 64 0 847 c0 499 3 854 9 864 5 9 9 19 9 22 -2 15
46 91 83 134 38 43 40 48 19 41 -14 -3 -37 -15 -52 -26 -37 -26 -46 -24 -20 4
22 23 22 24 4 41 -18 16 -20 15 -40 -6z m14 -34 c-19 -18 -20 -14 -4 23 9 22
12 24 15 11 3 -10 -3 -25 -11 -34z m-28 -154 c-1 -16 -6 -30 -10 -30 -4 0 -8
-9 -8 -20 0 -22 -15 -27 -26 -8 -5 7 -3 8 6 3 10 -6 12 -4 7 9 -6 16 17 76 28
76 3 0 4 -13 3 -30z"/>
<path d="M1702 3282 l-112 -3 -38 -60 c-20 -34 -117 -188 -216 -343 -98 -154
-229 -362 -291 -461 -62 -99 -144 -229 -182 -290 -38 -60 -132 -211 -208 -335
-76 -124 -191 -309 -256 -412 -66 -103 -119 -190 -119 -193 0 -3 96 -4 212 -3
l213 3 42 65 c24 36 104 165 179 288 l136 222 41 1 c357 6 487 6 514 2 l33 -5
2 -287 3 -286 120 -3 c66 -2 144 -1 173 3 l52 6 0 64 0 64 -42 -15 c-38 -13
-43 -13 -61 3 -25 23 -73 93 -109 158 l-27 50 45 46 46 46 -34 45 c-63 82 -75
197 -30 285 22 42 88 107 127 125 l24 11 -37 19 c-55 30 -86 63 -117 126 -77
156 4 353 166 407 l50 17 -1 307 c-1 169 -5 313 -10 321 -9 14 -86 18 -288 12z
m-52 -872 l0 -290 -180 0 c-99 0 -180 3 -180 8 0 4 35 66 78 137 206 340 265
435 273 435 5 0 9 -130 9 -290z"/>
<path d="M1914 1898 c-42 -65 -45 -117 -10 -169 14 -20 41 -44 61 -53 20 -10
39 -24 41 -31 8 -21 -22 -70 -67 -108 l-41 -36 22 -35 c12 -20 24 -36 27 -36
15 0 103 57 151 97 62 53 111 128 93 146 -6 6 -11 8 -11 3 0 -4 -7 0 -16 8 -8
9 -12 21 -8 27 5 8 3 9 -6 4 -9 -6 -11 0 -5 26 4 25 3 30 -4 19 -6 -9 -11 -10
-11 -3 0 13 -17 12 -47 -5 -16 -9 -24 -9 -29 0 -4 7 -3 8 4 4 8 -5 11 1 10 18
-2 19 -7 25 -18 21 -10 -3 -16 2 -17 15 -1 13 4 20 15 20 13 0 14 2 3 9 -11 7
-11 9 0 14 12 4 11 6 0 6 -8 1 -23 -6 -33 -16 -27 -25 -31 -10 -6 23 19 25 19
27 2 13 -28 -23 -66 -18 -80 9 -9 18 -14 21 -20 10z"/>
<path d="M2191 1734 c0 -11 3 -14 6 -6 3 7 2 16 -1 19 -3 4 -6 -2 -5 -13z"/>
<path d="M2190 1700 c0 -5 5 -10 11 -10 5 0 7 5 4 10 -3 6 -8 10 -11 10 -2 0
-4 -4 -4 -10z"/>
<path d="M2325 1658 c-17 -78 -101 -203 -168 -248 l-37 -25 0 -97 0 -98 176 0
176 0 -3 235 c-2 129 -7 235 -11 235 -5 0 -8 -7 -8 -15 0 -8 -7 -15 -15 -15
-8 0 -15 5 -15 11 0 6 -7 9 -15 5 -8 -3 -15 -1 -15 5 0 15 -26 39 -43 39 -9 0
-18 -13 -22 -32z"/>
<path d="M329 1049 c28 -23 128 -82 426 -251 121 -69 405 -231 631 -361 584
-334 536 -312 669 -312 135 0 127 -4 520 225 154 89 339 196 410 237 72 41
137 82 145 91 13 14 13 15 0 5 -11 -8 -18 -8 -27 2 -6 7 -9 16 -6 19 4 3 1 6
-6 6 -7 0 -9 5 -5 13 6 9 4 9 -7 1 -13 -11 -59 -25 -59 -19 0 1 25 20 55 40
30 21 55 40 55 42 0 6 -193 -99 -485 -265 -159 -90 -328 -186 -375 -212 -103
-59 -160 -74 -245 -67 -63 5 -79 13 -507 257 -433 248 -661 379 -883 507
l-109 63 -111 0 -110 -1 24 -20z m2751 -349 c0 -5 -5 -10 -11 -10 -5 0 -7 5
-4 10 3 6 8 10 11 10 2 0 4 -4 4 -10z"/>
</g>
</svg>
